<svg width="29" height="29" viewBox="0 0 29 29" fill="none" xmlns="http://www.w3.org/2000/svg">
<path d="M16.9168 22.7481V23.5623C16.9168 25.4105 13.3988 26.5832 9.06266 26.5832C4.72649 26.5832 1.2085 25.4105 1.2085 23.5623V12.5582C1.2085 12.4756 1.22506 12.3969 1.25503 12.3252C1.6834 10.6873 5.0169 9.6665 9.06266 9.6665C10.1223 9.6665 11.133 9.73653 12.0556 9.86933V5.32044C12.0556 5.19683 12.0927 5.0819 12.1564 4.98617C12.6803 3.40042 15.9657 2.4165 19.9377 2.4165C24.0106 2.4165 27.3616 3.45109 27.7535 5.10826C27.7783 5.17428 27.7918 5.24577 27.7918 5.32044V19.9373C27.7918 21.7855 24.2738 22.9582 19.9377 22.9582C18.8869 22.9582 17.8581 22.8855 16.9168 22.7481ZM16.9168 21.526C17.8443 21.6718 18.8779 21.7498 19.9377 21.7498C21.8253 21.7498 23.5884 21.5013 24.8731 21.073C25.9998 20.6974 26.5835 20.2375 26.5835 19.9373V7.12743C25.1921 7.97009 22.7351 8.45817 19.9377 8.45817C17.1214 8.45817 14.6502 7.9635 13.2639 7.11038V10.0906C15.4144 10.5778 16.857 11.4607 16.915 12.6149C16.9162 12.6304 16.9168 12.6462 16.9168 12.662V21.526ZM15.7085 14.3774C14.3171 15.2201 11.8601 15.7082 9.06266 15.7082C6.2652 15.7082 3.80827 15.2201 2.41683 14.3774V23.5623C2.41683 23.8625 3.00049 24.3224 4.12719 24.698C5.41197 25.1263 7.17498 25.3748 9.06266 25.3748C10.9503 25.3748 12.7134 25.1263 13.9981 24.698C15.1248 24.3224 15.7085 23.8625 15.7085 23.5623V14.3774ZM19.9377 7.24984C21.8253 7.24984 23.5884 7.00127 24.8731 6.57302C25.9998 6.19745 26.5835 5.73747 26.5835 5.43734C26.5835 5.1372 25.9998 4.67723 24.8731 4.30166C23.5884 3.8734 21.8253 3.62484 19.9377 3.62484C18.05 3.62484 16.287 3.8734 15.0022 4.30166C13.8755 4.67723 13.2918 5.1372 13.2918 5.43734C13.2918 5.73747 13.8755 6.19745 15.0022 6.57302C16.287 7.00127 18.05 7.24984 19.9377 7.24984ZM9.06266 14.4998C10.9503 14.4998 12.7134 14.2513 13.9981 13.823C15.1248 13.4474 15.7085 12.9875 15.7085 12.6873C15.7085 12.3872 15.1248 11.9272 13.9981 11.5517C12.7134 11.1234 10.9503 10.8748 9.06266 10.8748C7.17498 10.8748 5.41197 11.1234 4.12719 11.5517C3.00049 11.9272 2.41683 12.3872 2.41683 12.6873C2.41683 12.9875 3.00049 13.4474 4.12719 13.823C5.41197 14.2513 7.17498 14.4998 9.06266 14.4998ZM16.2055 19.0003C15.8779 18.9373 15.6633 18.6206 15.7264 18.2929C15.7894 17.9653 16.1061 17.7507 16.4338 17.8137C17.4864 18.0162 18.6871 18.1248 19.9377 18.1248C21.8253 18.1248 23.5884 17.8763 24.8731 17.448C25.9998 17.0724 26.5835 16.6125 26.5835 16.3123C26.5835 15.9787 26.854 15.7082 27.1877 15.7082C27.5213 15.7082 27.7918 15.9787 27.7918 16.3123C27.7918 18.1605 24.2738 19.3332 19.9377 19.3332C18.6124 19.3332 17.3354 19.2176 16.2055 19.0003ZM16.1991 15.3778C15.8713 15.3151 15.6565 14.9985 15.7193 14.6708C15.782 14.3431 16.0985 14.1283 16.4263 14.191C17.4716 14.3912 18.6873 14.4998 19.9377 14.4998C21.8253 14.4998 23.5884 14.2513 24.8731 13.823C25.9998 13.4474 26.5835 12.9875 26.5835 12.6873C26.5835 12.3537 26.854 12.0832 27.1877 12.0832C27.5213 12.0832 27.7918 12.3537 27.7918 12.6873C27.7918 14.5355 24.2738 15.7082 19.9377 15.7082C18.6131 15.7082 17.3216 15.5927 16.1991 15.3778ZM12.0835 9.06234C12.0835 8.72866 12.354 8.45817 12.6877 8.45817C13.0213 8.45817 13.2918 8.72866 13.2918 9.06234C13.2918 9.36247 13.8755 9.82245 15.0022 10.198C16.287 10.6263 18.05 10.8748 19.9377 10.8748C21.8253 10.8748 23.5884 10.6263 24.8731 10.198C25.9998 9.82245 26.5835 9.36247 26.5835 9.06234C26.5835 8.72866 26.854 8.45817 27.1877 8.45817C27.5213 8.45817 27.7918 8.72866 27.7918 9.06234C27.7918 10.9105 24.2738 12.0832 19.9377 12.0832C15.6015 12.0832 12.0835 10.9105 12.0835 9.06234ZM1.2085 19.9373C1.2085 19.6037 1.47899 19.3332 1.81266 19.3332C2.14633 19.3332 2.41683 19.6037 2.41683 19.9373C2.41683 20.2375 3.00049 20.6974 4.12719 21.073C5.41197 21.5013 7.17498 21.7498 9.06266 21.7498C10.9503 21.7498 12.7134 21.5013 13.9981 21.073C15.1248 20.6974 15.7085 20.2375 15.7085 19.9373C15.7085 19.6037 15.979 19.3332 16.3127 19.3332C16.6463 19.3332 16.9168 19.6037 16.9168 19.9373C16.9168 21.7855 13.3988 22.9582 9.06266 22.9582C4.72649 22.9582 1.2085 21.7855 1.2085 19.9373ZM1.2085 16.3123C1.2085 15.9787 1.47899 15.7082 1.81266 15.7082C2.14633 15.7082 2.41683 15.9787 2.41683 16.3123C2.41683 16.6125 3.00049 17.0724 4.12719 17.448C5.41197 17.8763 7.17498 18.1248 9.06266 18.1248C10.9503 18.1248 12.7134 17.8763 13.9981 17.448C15.1248 17.0724 15.7085 16.6125 15.7085 16.3123C15.7085 15.9787 15.979 15.7082 16.3127 15.7082C16.6463 15.7082 16.9168 15.9787 16.9168 16.3123C16.9168 18.1605 13.3988 19.3332 9.06266 19.3332C4.72649 19.3332 1.2085 18.1605 1.2085 16.3123Z" fill="#A4A8BB"/>
</svg>
