<svg width="24" height="24" viewBox="0 0 24 24" fill="none" xmlns="http://www.w3.org/2000/svg">
<circle cx="12" cy="12" r="12" fill="#DBA97C"/>
<path d="M16.8468 11.7C16.8414 11.6941 16.8358 11.6884 16.8299 11.6828L12.7193 7.71189C12.5979 7.59463 12.5981 7.40468 12.7197 7.28763C12.8413 7.17058 13.0383 7.17075 13.1597 7.28801L17.2703 11.2589C17.4572 11.4394 17.5618 11.6692 17.5841 11.9049C17.5944 11.9348 17.6 11.9667 17.6 12C17.6 12.0329 17.5945 12.0647 17.5843 12.0944C17.5624 12.3311 17.4575 12.5621 17.2696 12.7433L13.1533 16.7121C13.0318 16.8292 12.8348 16.8292 12.7134 16.7121C12.5919 16.5949 12.5919 16.405 12.7134 16.2878L16.8297 12.319C16.8361 12.3128 16.8423 12.3064 16.8483 12.3H6.71114C6.53931 12.3 6.40002 12.1656 6.40002 12C6.40002 11.8343 6.53931 11.7 6.71114 11.7H16.8468Z" fill="white" stroke="white" stroke-width="0.8"/>
</svg>
